<svg xmlns="http://www.w3.org/2000/svg" xmlns:xlink="http://www.w3.org/1999/xlink" width="500" zoomAndPan="magnify" viewBox="0 0 375 374.999991" height="500" preserveAspectRatio="xMidYMid meet" version="1.0"><defs><clipPath id="89eb1a737f"><path d="M 62.910156 74.6875 L 311.910156 74.6875 L 311.910156 300.4375 L 62.910156 300.4375 Z M 62.910156 74.6875 " clip-rule="nonzero"/></clipPath></defs><g clip-path="url(#89eb1a737f)"><path fill="#313450" d="M 246.824219 98.507812 L 193.429688 98.507812 L 193.429688 80.710938 C 193.429688 80.320312 193.390625 79.933594 193.316406 79.550781 C 193.238281 79.171875 193.128906 78.800781 192.976562 78.4375 C 192.828125 78.078125 192.648438 77.738281 192.429688 77.414062 C 192.214844 77.089844 191.96875 76.789062 191.691406 76.515625 C 191.417969 76.238281 191.117188 75.992188 190.792969 75.777344 C 190.46875 75.558594 190.128906 75.378906 189.765625 75.230469 C 189.40625 75.078125 189.035156 74.96875 188.65625 74.890625 C 188.273438 74.816406 187.886719 74.777344 187.496094 74.777344 C 187.109375 74.777344 186.722656 74.816406 186.339844 74.890625 C 185.957031 74.96875 185.585938 75.078125 185.226562 75.230469 C 184.867188 75.378906 184.523438 75.558594 184.199219 75.777344 C 183.878906 75.992188 183.578125 76.238281 183.300781 76.515625 C 183.027344 76.789062 182.78125 77.089844 182.5625 77.414062 C 182.347656 77.738281 182.164062 78.078125 182.015625 78.4375 C 181.867188 78.800781 181.753906 79.171875 181.679688 79.550781 C 181.601562 79.933594 181.5625 80.320312 181.566406 80.710938 L 181.566406 98.507812 L 128.167969 98.507812 C 127.199219 98.507812 126.230469 98.558594 125.261719 98.652344 C 124.296875 98.75 123.335938 98.890625 122.382812 99.082031 C 121.433594 99.273438 120.492188 99.507812 119.5625 99.792969 C 118.632812 100.074219 117.71875 100.402344 116.820312 100.773438 C 115.925781 101.144531 115.046875 101.5625 114.191406 102.019531 C 113.335938 102.476562 112.503906 102.976562 111.695312 103.515625 C 110.886719 104.054688 110.109375 104.632812 109.359375 105.25 C 108.609375 105.867188 107.890625 106.515625 107.203125 107.203125 C 106.515625 107.890625 105.863281 108.609375 105.246094 109.359375 C 104.632812 110.113281 104.054688 110.890625 103.511719 111.699219 C 102.972656 112.503906 102.476562 113.335938 102.015625 114.195312 C 101.558594 115.050781 101.144531 115.925781 100.769531 116.824219 C 100.398438 117.722656 100.070312 118.632812 99.789062 119.5625 C 99.507812 120.492188 99.269531 121.433594 99.082031 122.386719 C 98.890625 123.339844 98.746094 124.296875 98.652344 125.265625 C 98.554688 126.230469 98.507812 127.199219 98.507812 128.171875 L 98.507812 234.960938 C 98.507812 235.933594 98.554688 236.902344 98.652344 237.867188 C 98.746094 238.835938 98.890625 239.792969 99.082031 240.746094 C 99.269531 241.699219 99.507812 242.640625 99.789062 243.570312 C 100.070312 244.5 100.398438 245.410156 100.769531 246.308594 C 101.144531 247.207031 101.558594 248.082031 102.015625 248.9375 C 102.476562 249.796875 102.972656 250.628906 103.511719 251.433594 C 104.054688 252.242188 104.632812 253.023438 105.246094 253.773438 C 105.863281 254.523438 106.515625 255.242188 107.203125 255.929688 C 107.890625 256.617188 108.609375 257.265625 109.359375 257.882812 C 110.109375 258.5 110.886719 259.078125 111.695312 259.617188 C 112.503906 260.15625 113.335938 260.65625 114.191406 261.113281 C 115.046875 261.574219 115.925781 261.988281 116.820312 262.359375 C 117.71875 262.730469 118.632812 263.058594 119.5625 263.339844 C 120.492188 263.625 121.433594 263.859375 122.382812 264.050781 C 123.335938 264.242188 124.296875 264.382812 125.261719 264.480469 C 126.230469 264.574219 127.199219 264.625 128.167969 264.625 L 160.589844 264.625 L 182.5625 297.578125 C 182.695312 297.78125 182.84375 297.976562 183 298.160156 C 183.160156 298.34375 183.328125 298.519531 183.511719 298.679688 C 183.691406 298.84375 183.878906 298.996094 184.078125 299.136719 C 184.277344 299.277344 184.484375 299.40625 184.699219 299.519531 C 184.914062 299.632812 185.132812 299.734375 185.359375 299.824219 C 185.585938 299.910156 185.820312 299.984375 186.054688 300.042969 C 186.289062 300.101562 186.527344 300.148438 186.769531 300.175781 C 187.011719 300.207031 187.253906 300.222656 187.496094 300.222656 C 187.742188 300.222656 187.984375 300.207031 188.222656 300.175781 C 188.464844 300.148438 188.703125 300.101562 188.941406 300.042969 C 189.175781 299.984375 189.40625 299.910156 189.632812 299.824219 C 189.859375 299.734375 190.082031 299.632812 190.296875 299.519531 C 190.511719 299.40625 190.71875 299.277344 190.917969 299.136719 C 191.113281 298.996094 191.304688 298.84375 191.484375 298.679688 C 191.664062 298.519531 191.835938 298.34375 191.992188 298.160156 C 192.152344 297.976562 192.296875 297.78125 192.433594 297.578125 L 214.402344 264.625 L 246.824219 264.625 C 247.796875 264.625 248.765625 264.574219 249.730469 264.480469 C 250.699219 264.382812 251.65625 264.242188 252.609375 264.050781 C 253.5625 263.859375 254.503906 263.625 255.433594 263.339844 C 256.363281 263.058594 257.273438 262.730469 258.171875 262.359375 C 259.070312 261.988281 259.945312 261.574219 260.804688 261.113281 C 261.660156 260.65625 262.492188 260.15625 263.296875 259.617188 C 264.105469 259.078125 264.886719 258.5 265.636719 257.882812 C 266.386719 257.265625 267.105469 256.617188 267.792969 255.929688 C 268.480469 255.242188 269.128906 254.523438 269.746094 253.773438 C 270.363281 253.023438 270.941406 252.242188 271.480469 251.433594 C 272.019531 250.628906 272.519531 249.796875 272.976562 248.9375 C 273.4375 248.082031 273.851562 247.207031 274.222656 246.308594 C 274.59375 245.410156 274.921875 244.5 275.207031 243.570312 C 275.488281 242.640625 275.722656 241.699219 275.914062 240.746094 C 276.105469 239.792969 276.246094 238.835938 276.34375 237.867188 C 276.4375 236.902344 276.488281 235.933594 276.488281 234.960938 L 276.488281 128.171875 C 276.488281 127.199219 276.4375 126.230469 276.34375 125.265625 C 276.246094 124.296875 276.105469 123.339844 275.914062 122.386719 C 275.722656 121.433594 275.488281 120.492188 275.207031 119.5625 C 274.921875 118.632812 274.59375 117.722656 274.222656 116.824219 C 273.851562 115.925781 273.4375 115.050781 272.976562 114.195312 C 272.519531 113.335938 272.019531 112.503906 271.480469 111.699219 C 270.941406 110.890625 270.363281 110.113281 269.746094 109.359375 C 269.128906 108.609375 268.480469 107.890625 267.792969 107.203125 C 267.105469 106.515625 266.386719 105.867188 265.636719 105.25 C 264.886719 104.632812 264.105469 104.054688 263.296875 103.515625 C 262.492188 102.976562 261.660156 102.476562 260.800781 102.019531 C 259.945312 101.5625 259.070312 101.144531 258.171875 100.773438 C 257.273438 100.402344 256.363281 100.074219 255.433594 99.792969 C 254.503906 99.507812 253.5625 99.273438 252.609375 99.082031 C 251.65625 98.890625 250.699219 98.75 249.730469 98.652344 C 248.765625 98.558594 247.796875 98.507812 246.824219 98.507812 Z M 264.621094 234.960938 C 264.621094 235.542969 264.59375 236.125 264.535156 236.707031 C 264.476562 237.285156 264.390625 237.859375 264.277344 238.433594 C 264.164062 239.003906 264.023438 239.566406 263.851562 240.125 C 263.683594 240.683594 263.488281 241.230469 263.261719 241.769531 C 263.039062 242.308594 262.789062 242.832031 262.515625 243.347656 C 262.242188 243.863281 261.941406 244.359375 261.617188 244.84375 C 261.292969 245.328125 260.945312 245.796875 260.578125 246.246094 C 260.207031 246.699219 259.816406 247.128906 259.40625 247.539062 C 258.992188 247.953125 258.5625 248.34375 258.109375 248.714844 C 257.660156 249.082031 257.191406 249.429688 256.707031 249.753906 C 256.222656 250.078125 255.726562 250.378906 255.210938 250.652344 C 254.695312 250.925781 254.171875 251.175781 253.632812 251.398438 C 253.09375 251.621094 252.546875 251.820312 251.988281 251.988281 C 251.429688 252.160156 250.867188 252.300781 250.296875 252.414062 C 249.722656 252.527344 249.148438 252.613281 248.570312 252.671875 C 247.988281 252.730469 247.40625 252.757812 246.824219 252.757812 L 211.226562 252.757812 C 210.238281 252.761719 209.304688 252.996094 208.429688 253.464844 C 207.554688 253.929688 206.84375 254.578125 206.292969 255.402344 L 187.496094 283.59375 L 168.703125 255.402344 C 168.152344 254.578125 167.4375 253.929688 166.5625 253.464844 C 165.691406 252.996094 164.757812 252.761719 163.765625 252.757812 L 128.167969 252.757812 C 127.585938 252.757812 127.003906 252.730469 126.425781 252.671875 C 125.847656 252.613281 125.269531 252.527344 124.699219 252.414062 C 124.128906 252.300781 123.5625 252.160156 123.003906 251.988281 C 122.449219 251.820312 121.898438 251.621094 121.363281 251.398438 C 120.824219 251.175781 120.296875 250.925781 119.785156 250.652344 C 119.269531 250.378906 118.769531 250.078125 118.285156 249.753906 C 117.800781 249.429688 117.335938 249.082031 116.882812 248.714844 C 116.433594 248.34375 116.003906 247.953125 115.589844 247.539062 C 115.179688 247.128906 114.785156 246.699219 114.417969 246.246094 C 114.046875 245.796875 113.699219 245.328125 113.375 244.84375 C 113.054688 244.359375 112.753906 243.863281 112.480469 243.347656 C 112.203125 242.832031 111.953125 242.308594 111.730469 241.769531 C 111.507812 241.230469 111.3125 240.683594 111.140625 240.125 C 110.972656 239.566406 110.832031 239.003906 110.714844 238.433594 C 110.601562 237.859375 110.515625 237.285156 110.457031 236.707031 C 110.402344 236.125 110.371094 235.542969 110.371094 234.960938 L 110.371094 217.164062 L 264.621094 217.164062 Z M 264.621094 205.296875 L 110.371094 205.296875 L 110.371094 128.171875 C 110.371094 127.589844 110.402344 127.007812 110.457031 126.429688 C 110.515625 125.847656 110.601562 125.273438 110.714844 124.699219 C 110.832031 124.128906 110.972656 123.566406 111.140625 123.007812 C 111.3125 122.449219 111.507812 121.902344 111.730469 121.363281 C 111.953125 120.824219 112.203125 120.300781 112.480469 119.785156 C 112.753906 119.273438 113.054688 118.773438 113.375 118.289062 C 113.699219 117.804688 114.046875 117.335938 114.417969 116.886719 C 114.785156 116.433594 115.179688 116.003906 115.589844 115.59375 C 116.003906 115.179688 116.433594 114.789062 116.882812 114.417969 C 117.335938 114.050781 117.800781 113.703125 118.285156 113.378906 C 118.769531 113.054688 119.269531 112.753906 119.785156 112.480469 C 120.296875 112.207031 120.824219 111.957031 121.363281 111.734375 C 121.898438 111.511719 122.449219 111.3125 123.003906 111.144531 C 123.5625 110.976562 124.128906 110.832031 124.699219 110.71875 C 125.269531 110.605469 125.847656 110.519531 126.425781 110.460938 C 127.003906 110.402344 127.585938 110.375 128.167969 110.375 L 246.824219 110.375 C 247.40625 110.375 247.988281 110.402344 248.570312 110.460938 C 249.148438 110.519531 249.722656 110.605469 250.296875 110.71875 C 250.867188 110.832031 251.429688 110.976562 251.988281 111.144531 C 252.546875 111.3125 253.09375 111.511719 253.632812 111.734375 C 254.171875 111.957031 254.695312 112.207031 255.210938 112.480469 C 255.726562 112.753906 256.222656 113.054688 256.707031 113.378906 C 257.191406 113.703125 257.660156 114.050781 258.109375 114.417969 C 258.5625 114.789062 258.992188 115.179688 259.40625 115.59375 C 259.816406 116.003906 260.207031 116.433594 260.578125 116.886719 C 260.945312 117.335938 261.292969 117.804688 261.617188 118.289062 C 261.941406 118.773438 262.242188 119.273438 262.515625 119.785156 C 262.789062 120.300781 263.039062 120.824219 263.261719 121.363281 C 263.488281 121.902344 263.683594 122.449219 263.851562 123.007812 C 264.023438 123.566406 264.164062 124.128906 264.277344 124.699219 C 264.390625 125.273438 264.476562 125.847656 264.535156 126.429688 C 264.59375 127.007812 264.621094 127.589844 264.621094 128.171875 Z M 163.765625 163.769531 C 163.765625 164.546875 163.691406 165.320312 163.539062 166.082031 C 163.386719 166.847656 163.160156 167.589844 162.863281 168.308594 C 162.566406 169.027344 162.199219 169.710938 161.765625 170.359375 C 161.332031 171.007812 160.839844 171.609375 160.289062 172.160156 C 159.738281 172.710938 159.140625 173.203125 158.492188 173.632812 C 157.84375 174.066406 157.160156 174.433594 156.441406 174.730469 C 155.722656 175.027344 154.980469 175.253906 154.214844 175.40625 C 153.453125 175.558594 152.679688 175.632812 151.902344 175.632812 C 151.121094 175.632812 150.351562 175.558594 149.585938 175.40625 C 148.820312 175.253906 148.078125 175.027344 147.359375 174.730469 C 146.640625 174.433594 145.957031 174.066406 145.308594 173.632812 C 144.660156 173.203125 144.0625 172.710938 143.511719 172.160156 C 142.960938 171.609375 142.46875 171.007812 142.035156 170.359375 C 141.601562 169.710938 141.238281 169.027344 140.9375 168.308594 C 140.640625 167.589844 140.414062 166.847656 140.261719 166.082031 C 140.109375 165.320312 140.035156 164.546875 140.035156 163.769531 C 140.035156 162.988281 140.109375 162.21875 140.261719 161.453125 C 140.414062 160.6875 140.640625 159.949219 140.9375 159.226562 C 141.238281 158.507812 141.601562 157.824219 142.035156 157.175781 C 142.46875 156.527344 142.960938 155.929688 143.511719 155.378906 C 144.0625 154.828125 144.660156 154.335938 145.308594 153.902344 C 145.957031 153.46875 146.640625 153.105469 147.359375 152.804688 C 148.078125 152.507812 148.820312 152.28125 149.585938 152.128906 C 150.351562 151.980469 151.121094 151.902344 151.902344 151.902344 C 152.679688 151.902344 153.453125 151.980469 154.214844 152.128906 C 154.980469 152.28125 155.722656 152.507812 156.441406 152.804688 C 157.160156 153.105469 157.84375 153.46875 158.492188 153.902344 C 159.140625 154.335938 159.738281 154.828125 160.289062 155.378906 C 160.839844 155.929688 161.332031 156.527344 161.765625 157.175781 C 162.199219 157.824219 162.566406 158.507812 162.863281 159.226562 C 163.160156 159.949219 163.386719 160.6875 163.539062 161.453125 C 163.691406 162.21875 163.765625 162.988281 163.765625 163.769531 Z M 234.960938 163.769531 C 234.960938 164.546875 234.882812 165.320312 234.730469 166.082031 C 234.578125 166.847656 234.355469 167.589844 234.054688 168.308594 C 233.757812 169.027344 233.390625 169.710938 232.960938 170.359375 C 232.527344 171.007812 232.035156 171.609375 231.484375 172.160156 C 230.933594 172.710938 230.332031 173.203125 229.6875 173.632812 C 229.039062 174.066406 228.355469 174.433594 227.632812 174.730469 C 226.914062 175.027344 226.171875 175.253906 225.410156 175.40625 C 224.644531 175.558594 223.871094 175.632812 223.09375 175.632812 C 222.316406 175.632812 221.542969 175.558594 220.777344 175.40625 C 220.015625 175.253906 219.273438 175.027344 218.554688 174.730469 C 217.832031 174.433594 217.148438 174.066406 216.5 173.632812 C 215.855469 173.203125 215.253906 172.710938 214.703125 172.160156 C 214.152344 171.609375 213.660156 171.007812 213.226562 170.359375 C 212.796875 169.710938 212.429688 169.027344 212.132812 168.308594 C 211.832031 167.589844 211.609375 166.847656 211.457031 166.082031 C 211.304688 165.320312 211.226562 164.546875 211.226562 163.769531 C 211.226562 162.988281 211.304688 162.21875 211.457031 161.453125 C 211.609375 160.6875 211.832031 159.949219 212.132812 159.226562 C 212.429688 158.507812 212.796875 157.824219 213.226562 157.175781 C 213.660156 156.527344 214.152344 155.929688 214.703125 155.378906 C 215.253906 154.828125 215.855469 154.335938 216.5 153.902344 C 217.148438 153.46875 217.832031 153.105469 218.554688 152.804688 C 219.273438 152.507812 220.015625 152.28125 220.777344 152.128906 C 221.542969 151.980469 222.316406 151.902344 223.09375 151.902344 C 223.871094 151.902344 224.644531 151.980469 225.410156 152.128906 C 226.171875 152.28125 226.914062 152.507812 227.632812 152.804688 C 228.355469 153.105469 229.039062 153.46875 229.6875 153.902344 C 230.332031 154.335938 230.933594 154.828125 231.484375 155.378906 C 232.035156 155.929688 232.527344 156.527344 232.960938 157.175781 C 233.390625 157.824219 233.757812 158.507812 234.054688 159.226562 C 234.355469 159.949219 234.578125 160.6875 234.730469 161.453125 C 234.882812 162.21875 234.960938 162.988281 234.960938 163.769531 Z M 74.773438 140.039062 L 74.773438 187.5 C 74.773438 187.890625 74.738281 188.273438 74.660156 188.65625 C 74.585938 189.039062 74.472656 189.410156 74.324219 189.769531 C 74.175781 190.128906 73.992188 190.472656 73.773438 190.796875 C 73.558594 191.121094 73.3125 191.417969 73.039062 191.695312 C 72.761719 191.96875 72.460938 192.214844 72.136719 192.433594 C 71.8125 192.648438 71.472656 192.832031 71.113281 192.980469 C 70.753906 193.128906 70.382812 193.242188 70 193.316406 C 69.617188 193.394531 69.230469 193.433594 68.84375 193.433594 C 68.453125 193.433594 68.066406 193.394531 67.683594 193.316406 C 67.300781 193.242188 66.929688 193.128906 66.570312 192.980469 C 66.210938 192.832031 65.871094 192.648438 65.546875 192.433594 C 65.222656 192.214844 64.921875 191.96875 64.648438 191.695312 C 64.371094 191.417969 64.125 191.121094 63.910156 190.796875 C 63.691406 190.472656 63.511719 190.128906 63.359375 189.769531 C 63.210938 189.410156 63.097656 189.039062 63.023438 188.65625 C 62.949219 188.273438 62.910156 187.890625 62.910156 187.5 L 62.910156 140.039062 C 62.910156 139.648438 62.949219 139.261719 63.023438 138.878906 C 63.097656 138.496094 63.210938 138.125 63.359375 137.765625 C 63.511719 137.40625 63.691406 137.066406 63.910156 136.742188 C 64.125 136.417969 64.371094 136.117188 64.648438 135.84375 C 64.921875 135.566406 65.222656 135.320312 65.546875 135.105469 C 65.871094 134.886719 66.210938 134.707031 66.570312 134.554688 C 66.929688 134.40625 67.300781 134.292969 67.683594 134.21875 C 68.066406 134.140625 68.453125 134.105469 68.84375 134.105469 C 69.230469 134.105469 69.617188 134.140625 70 134.21875 C 70.382812 134.292969 70.753906 134.40625 71.113281 134.554688 C 71.472656 134.707031 71.8125 134.886719 72.136719 135.105469 C 72.460938 135.320312 72.761719 135.566406 73.039062 135.84375 C 73.3125 136.117188 73.558594 136.417969 73.773438 136.742188 C 73.992188 137.066406 74.175781 137.40625 74.324219 137.765625 C 74.472656 138.125 74.585938 138.496094 74.660156 138.878906 C 74.738281 139.261719 74.773438 139.648438 74.773438 140.039062 Z M 312.085938 140.039062 L 312.085938 187.5 C 312.085938 187.890625 312.046875 188.273438 311.972656 188.65625 C 311.894531 189.039062 311.78125 189.410156 311.632812 189.769531 C 311.484375 190.128906 311.300781 190.472656 311.085938 190.796875 C 310.867188 191.121094 310.621094 191.417969 310.347656 191.695312 C 310.070312 191.96875 309.773438 192.214844 309.449219 192.433594 C 309.125 192.648438 308.78125 192.832031 308.421875 192.980469 C 308.0625 193.128906 307.691406 193.242188 307.308594 193.316406 C 306.925781 193.394531 306.542969 193.433594 306.152344 193.433594 C 305.761719 193.433594 305.378906 193.394531 304.996094 193.316406 C 304.613281 193.242188 304.242188 193.128906 303.882812 192.980469 C 303.523438 192.832031 303.179688 192.648438 302.855469 192.433594 C 302.53125 192.214844 302.234375 191.96875 301.957031 191.695312 C 301.683594 191.417969 301.4375 191.121094 301.21875 190.796875 C 301.003906 190.472656 300.820312 190.128906 300.671875 189.769531 C 300.523438 189.410156 300.410156 189.039062 300.332031 188.65625 C 300.257812 188.273438 300.21875 187.890625 300.21875 187.5 L 300.21875 140.039062 C 300.21875 139.648438 300.257812 139.261719 300.332031 138.878906 C 300.410156 138.496094 300.523438 138.125 300.671875 137.765625 C 300.820312 137.40625 301.003906 137.066406 301.21875 136.742188 C 301.4375 136.417969 301.683594 136.117188 301.957031 135.84375 C 302.234375 135.566406 302.53125 135.320312 302.855469 135.105469 C 303.179688 134.886719 303.523438 134.707031 303.882812 134.554688 C 304.242188 134.40625 304.613281 134.292969 304.996094 134.21875 C 305.378906 134.140625 305.761719 134.105469 306.152344 134.105469 C 306.542969 134.105469 306.925781 134.140625 307.308594 134.21875 C 307.691406 134.292969 308.0625 134.40625 308.421875 134.554688 C 308.78125 134.707031 309.125 134.886719 309.449219 135.105469 C 309.773438 135.320312 310.070312 135.566406 310.347656 135.84375 C 310.621094 136.117188 310.867188 136.417969 311.085938 136.742188 C 311.300781 137.066406 311.484375 137.40625 311.632812 137.765625 C 311.78125 138.125 311.894531 138.496094 311.972656 138.878906 C 312.046875 139.261719 312.085938 139.648438 312.085938 140.039062 Z M 312.085938 140.039062 " fill-opacity="1" fill-rule="nonzero"/></g></svg>